# This file uses centimeters as units for non-parametric coordinates.

mtllib wrap.mtl
g default
v -7.275312 4.773838 -5.962720
v -3.635293 4.773838 -5.962720
v -7.275312 4.932711 -5.962720
v -3.635293 4.932711 -5.962720
v -7.275312 4.932711 -9.176448
v -3.635293 4.932711 -9.176448
v -7.275312 4.773838 -9.176448
v -3.635293 4.773838 -9.176448
v -5.455303 4.932711 -9.176448
v -5.455303 4.932711 -5.962720
v -3.635293 4.932711 -7.569584
v -5.455303 4.932711 -7.569584
v -7.275312 4.932711 -7.569584
v -5.337945 4.932711 -6.038583
v -3.720496 4.932711 -6.038583
v -3.720496 4.932711 -7.495606
v -5.337945 4.932711 -7.495606
v -7.275312 4.932711 -5.962720
v -5.455303 4.932711 -5.962720
v -5.455303 4.932711 -7.569584
v -7.275312 4.932711 -7.569584
v -7.179790 4.932711 -6.081441
v -5.623008 4.932711 -6.081441
v -5.623008 4.932711 -7.484902
v -7.179790 4.932711 -7.484903
v -5.615880 4.932711 -7.665159
v -7.202995 4.932711 -7.665159
v -5.615880 4.932711 -9.085311
v -7.202995 4.932711 -9.085309
v -3.720496 4.932711 -7.635691
v -5.337945 4.932711 -7.635691
v -3.720496 4.932711 -9.082624
v -5.337945 4.932711 -9.082624
v -5.337944 5.255124 -6.038582
v -3.720495 5.255125 -6.038583
v -3.720495 5.255124 -7.495606
v -5.337944 5.255124 -7.495605
v -7.179790 5.255125 -6.081441
v -5.623008 5.255125 -6.081441
v -5.623008 5.255125 -7.484902
v -7.179790 5.255125 -7.484903
v -3.720496 5.255125 -7.635691
v -5.337945 5.255125 -7.635691
v -3.720496 5.255125 -9.082624
v -5.337945 5.255125 -9.082624
v -5.615880 5.255125 -7.665159
v -7.202995 5.255125 -7.665159
v -5.615881 5.255125 -9.085311
v -7.202996 5.255125 -9.085309
vt 0.375000 0.000000
vt 0.625000 0.000000
vt 0.375000 0.250000
vt 0.625000 0.250000
vt 0.375000 0.500000
vt 0.625000 0.500000
vt 0.375000 0.750000
vt 0.625000 0.750000
vt 0.375000 1.000000
vt 0.625000 1.000000
vt 0.875000 0.000000
vt 0.875000 0.250000
vt 0.125000 0.000000
vt 0.125000 0.250000
vt 0.500000 0.500000
vt 0.500000 0.250000
vt 0.625000 0.375000
vt 0.750000 0.250000
vt 0.500000 0.375000
vt 0.250000 0.250000
vt 0.375000 0.375000
vt 0.500000 0.250000
vt 0.625000 0.250000
vt 0.625000 0.375000
vt 0.500000 0.375000
vt 0.375000 0.250000
vt 0.500000 0.250000
vt 0.500000 0.375000
vt 0.375000 0.375000
vt 0.375000 0.250000
vt 0.500000 0.250000
vt 0.500000 0.375000
vt 0.375000 0.375000
vt 0.375000 0.375000
vt 0.500000 0.375000
vt 0.500000 0.500000
vt 0.375000 0.500000
vt 0.500000 0.375000
vt 0.625000 0.375000
vt 0.625000 0.500000
vt 0.500000 0.500000
vt 0.500000 0.250000
vt 0.625000 0.250000
vt 0.625000 0.375000
vt 0.500000 0.375000
vt 0.375000 0.250000
vt 0.500000 0.250000
vt 0.500000 0.375000
vt 0.375000 0.375000
vt 0.500000 0.375000
vt 0.625000 0.375000
vt 0.625000 0.500000
vt 0.500000 0.500000
vt 0.375000 0.375000
vt 0.500000 0.375000
vt 0.500000 0.500000
vt 0.375000 0.500000
vn 0.000000 0.000000 1.000000
vn 0.000000 0.000000 1.000000
vn 0.000000 0.000000 1.000000
vn 0.000000 0.000000 1.000000
vn 0.000000 0.000000 1.000000
vn -0.000001 1.000000 0.000000
vn -0.000000 1.000000 -0.000000
vn -0.000000 1.000000 -0.000000
vn -0.000000 1.000000 -0.000000
vn 0.000000 0.000000 -1.000000
vn 0.000000 0.000000 -1.000000
vn 0.000000 0.000000 -1.000000
vn 0.000000 0.000000 -1.000000
vn 0.000000 0.000000 -1.000000
vn 0.000000 -1.000000 0.000000
vn 0.000000 -1.000000 0.000000
vn 0.000000 -1.000000 0.000000
vn 0.000000 -1.000000 0.000000
vn 1.000000 0.000000 0.000000
vn 1.000000 0.000000 0.000000
vn 1.000000 0.000000 0.000000
vn 1.000000 0.000000 0.000000
vn 1.000000 0.000000 0.000000
vn -1.000000 0.000000 0.000000
vn -1.000000 0.000000 0.000000
vn -1.000000 0.000000 0.000000
vn -1.000000 0.000000 0.000000
vn -1.000000 0.000000 0.000000
vn 0.000000 1.000000 0.000000
vn 0.000000 1.000000 -0.000000
vn 0.000000 1.000000 -0.000000
vn 0.000000 1.000000 -0.000000
vn 0.000000 1.000000 0.000000
vn 0.000000 1.000000 0.000000
vn 0.000000 1.000000 0.000000
vn 0.000000 1.000000 0.000000
vn 0.000000 1.000000 -0.000000
vn 0.000000 1.000000 -0.000000
vn 0.000000 1.000000 -0.000000
vn 0.000000 1.000000 0.000000
vn 0.000000 1.000000 -0.000000
vn 0.000000 1.000000 -0.000000
vn 0.000000 1.000000 -0.000000
vn 0.000000 1.000000 -0.000000
vn 0.000000 1.000000 -0.000000
vn 0.000000 1.000000 0.000000
vn 0.000000 1.000000 -0.000000
vn 0.000000 1.000000 0.000000
vn 0.000000 0.000000 0.000000
vn 0.000000 0.000000 0.000000
vn 0.000000 0.000000 0.000000
vn 0.000000 0.000000 0.000000
vn 0.000000 0.000000 0.000000
vn 0.000000 0.000000 0.000000
vn 0.000000 0.000000 0.000000
vn 0.000000 0.000000 0.000000
vn 0.000000 0.000000 0.000000
vn 0.000000 0.000000 0.000000
vn 0.000000 0.000000 0.000000
vn 0.000000 0.000000 0.000000
vn 0.000000 0.000000 0.000000
vn 0.000000 0.000000 0.000000
vn 0.000000 0.000000 0.000000
vn 0.000000 0.000000 0.000000
vn 0.000000 1.000000 0.000000
vn 0.000000 1.000000 0.000000
vn 0.000000 1.000000 0.000000
vn 0.000000 1.000000 0.000000
vn 0.000000 1.000000 0.000000
vn 0.000000 1.000000 0.000000
vn 0.000000 1.000000 0.000000
vn 0.000000 1.000000 0.000000
vn 0.000000 1.000000 -0.000000
vn 0.000000 1.000000 -0.000000
vn 0.000000 1.000000 0.000000
vn 0.000000 1.000000 0.000000
vn 0.000000 1.000000 -0.000000
vn 0.000000 1.000000 -0.000000
vn 0.000000 1.000000 -0.000000
vn 0.000000 1.000000 -0.000000
vn 0.000000 1.000000 -0.000000
vn 0.000000 1.000000 0.000000
vn 0.000000 1.000000 0.000000
vn 0.000000 1.000000 0.000000
vn 0.000000 -0.000003 1.000000
vn 0.000000 -0.000001 1.000000
vn 0.000000 -0.000001 1.000000
vn 0.000001 -0.000000 1.000000
vn 1.000000 -0.000001 0.000000
vn 1.000000 -0.000002 0.000000
vn 1.000000 -0.000002 0.000000
vn 1.000000 -0.000002 0.000000
vn 0.000000 0.000000 -1.000000
vn -0.000000 0.000001 -1.000000
vn -0.000000 0.000001 -1.000000
vn -0.000001 0.000003 -1.000000
vn -1.000000 0.000003 0.000000
vn -1.000000 0.000003 0.000000
vn -1.000000 0.000003 0.000000
vn -1.000000 0.000003 0.000000
vn 0.000000 0.000000 1.000000
vn 0.000000 0.000000 1.000000
vn 0.000000 0.000000 1.000000
vn 0.000000 0.000000 1.000000
vn 1.000000 0.000000 -0.000000
vn 1.000000 0.000000 -0.000000
vn 1.000000 0.000000 -0.000000
vn 1.000000 0.000000 -0.000000
vn 0.000001 0.000000 -1.000000
vn 0.000001 0.000000 -1.000000
vn 0.000001 0.000000 -1.000000
vn 0.000001 0.000000 -1.000000
vn -1.000000 0.000000 0.000000
vn -1.000000 0.000000 0.000000
vn -1.000000 0.000000 0.000000
vn -1.000000 0.000000 0.000000
vn 0.000000 0.000000 1.000000
vn 0.000000 0.000000 1.000000
vn 0.000000 0.000000 1.000000
vn 0.000000 0.000000 1.000000
vn 1.000000 0.000000 0.000000
vn 1.000000 0.000000 0.000000
vn 1.000000 0.000000 0.000000
vn 1.000000 0.000000 0.000000
vn 0.000000 0.000000 -1.000000
vn 0.000000 0.000000 -1.000000
vn 0.000000 0.000000 -1.000000
vn 0.000000 0.000000 -1.000000
vn -1.000000 0.000000 0.000000
vn -1.000000 0.000000 0.000000
vn -1.000000 0.000000 0.000000
vn -1.000000 0.000000 0.000000
vn 0.000000 0.000000 1.000000
vn 0.000000 0.000000 1.000000
vn 0.000000 0.000000 1.000000
vn 0.000000 0.000000 1.000000
vn 1.000000 0.000000 0.000000
vn 1.000000 0.000001 -0.000000
vn 1.000000 0.000001 -0.000000
vn 1.000000 0.000003 -0.000001
vn -0.000001 -0.000000 -1.000000
vn -0.000001 -0.000000 -1.000000
vn -0.000001 -0.000000 -1.000000
vn -0.000001 -0.000000 -1.000000
vn -1.000000 -0.000003 0.000000
vn -1.000000 -0.000002 0.000000
vn -1.000000 -0.000002 0.000000
vn -1.000000 0.000000 0.000001
s 1
g pCube18
usemtl phong15SG
f 1/1/1 2/2/2 3/3/3
f 3/3/3 2/2/2 10/16/4
f 2/2/2 4/4/5 10/16/4
s 2
f 34/42/6 35/43/7 37/45/8
f 37/45/8 35/43/7 36/44/9
s 3
f 5/5/10 9/15/11 7/7/12
f 7/7/12 9/15/11 8/8/13
f 9/15/11 6/6/14 8/8/13
s 4
f 7/7/15 8/8/16 1/9/17
f 1/9/17 8/8/16 2/10/18
s 5
f 2/2/19 8/11/20 4/4/21
f 4/4/21 8/11/20 11/18/22
f 8/11/20 6/12/23 11/18/22
s 6
f 7/13/24 1/1/25 5/14/26
f 5/14/26 1/1/25 13/20/27
f 1/1/25 3/3/28 13/20/27
s 7
f 38/46/29 39/47/30 41/49/31
f 41/49/31 39/47/30 40/48/32
s 8
f 43/50/33 42/51/34 45/53/35
f 45/53/35 42/51/34 44/52/36
s 9
f 47/54/37 46/55/38 49/57/39
f 49/57/39 46/55/38 48/56/40
s 10
f 10/16/41 4/4/42 14/22/43
f 14/22/43 4/4/42 15/23/44
f 4/4/42 11/17/45 15/23/44
f 15/23/44 11/17/45 16/24/46
f 12/19/47 17/25/48 11/17/45
f 11/17/45 17/25/48 16/24/46
f 10/16/41 14/22/43 12/19/47
f 12/19/47 14/22/43 17/25/48
s 11
f 18/26/49 3/3/50 19/27/51
f 3/3/50 10/16/52 19/27/51
s 12
f 19/27/53 10/16/54 20/28/55
f 10/16/54 12/19/56 20/28/55
s 13
f 20/28/57 12/19/58 21/29/59
f 12/19/58 13/21/60 21/29/59
s 14
f 21/29/61 13/21/62 18/26/63
f 13/21/62 3/3/64 18/26/63
s 15
f 19/27/65 23/31/66 18/26/67
f 18/26/67 23/31/66 22/30/68
f 19/27/65 20/28/69 23/31/66
f 23/31/66 20/28/69 24/32/70
f 20/28/69 21/29/71 24/32/70
f 24/32/70 21/29/71 25/33/72
f 18/26/67 22/30/68 21/29/71
f 21/29/71 22/30/68 25/33/72
s 10
f 12/19/47 26/35/73 13/21/74
f 13/21/74 26/35/73 27/34/75
f 9/15/76 28/36/77 12/19/47
f 12/19/47 28/36/77 26/35/73
f 9/15/76 5/5/78 28/36/77
f 28/36/77 5/5/78 29/37/79
f 5/5/78 13/21/74 29/37/79
f 29/37/79 13/21/74 27/34/75
f 12/19/47 11/17/45 31/38/80
f 31/38/80 11/17/45 30/39/81
f 6/6/82 32/40/83 11/17/45
f 11/17/45 32/40/83 30/39/81
f 9/15/76 33/41/84 6/6/82
f 6/6/82 33/41/84 32/40/83
f 9/15/76 12/19/47 33/41/84
f 33/41/84 12/19/47 31/38/80
s 16
f 14/22/85 15/23/86 34/42/87
f 34/42/87 15/23/86 35/43/88
s 17
f 15/23/89 16/24/90 35/43/91
f 35/43/91 16/24/90 36/44/92
s 18
f 16/24/93 17/25/94 36/44/95
f 36/44/95 17/25/94 37/45/96
s 19
f 17/25/97 14/22/98 37/45/99
f 37/45/99 14/22/98 34/42/100
s 20
f 22/30/101 23/31/102 38/46/103
f 38/46/103 23/31/102 39/47/104
s 21
f 23/31/105 24/32/106 39/47/107
f 39/47/107 24/32/106 40/48/108
s 22
f 24/32/109 25/33/110 40/48/111
f 40/48/111 25/33/110 41/49/112
s 23
f 25/33/113 22/30/114 41/49/115
f 41/49/115 22/30/114 38/46/116
s 24
f 31/38/117 30/39/118 43/50/119
f 43/50/119 30/39/118 42/51/120
s 25
f 30/39/121 32/40/122 42/51/123
f 42/51/123 32/40/122 44/52/124
s 26
f 32/40/125 33/41/126 44/52/127
f 44/52/127 33/41/126 45/53/128
s 27
f 33/41/129 31/38/130 45/53/131
f 45/53/131 31/38/130 43/50/132
s 28
f 27/34/133 26/35/134 47/54/135
f 47/54/135 26/35/134 46/55/136
s 29
f 26/35/137 28/36/138 46/55/139
f 46/55/139 28/36/138 48/56/140
s 30
f 28/36/141 29/37/142 48/56/143
f 48/56/143 29/37/142 49/57/144
s 31
f 29/37/145 27/34/146 49/57/147
f 49/57/147 27/34/146 47/54/148
